<!DOCTYPE svg PUBLIC "-//W3C//DTD SVG 1.1//EN" "http://www.w3.org/Graphics/SVG/1.1/DTD/svg11.dtd">

<!-- Uploaded to: SVG Repo, www.svgrepo.com, Transformed by: SVG Repo Mixer Tools -->
<svg version="1.1" id="Icons" xmlns="http://www.w3.org/2000/svg" xmlns:xlink="http://www.w3.org/1999/xlink" viewBox="0 0 32 32" xml:space="preserve" width="64px" height="64px" fill="#94DEA5">

<g id="SVGRepo_bgCarrier" stroke-width="0"/>

<g id="SVGRepo_tracerCarrier" stroke-linecap="round" stroke-linejoin="round"/>

<g id="SVGRepo_iconCarrier"> <style type="text/css"> .st0{fill:none;stroke:#94DEA5;stroke-width:2;stroke-linecap:round;stroke-linejoin:round;stroke-miterlimit:10;} </style> <ellipse transform="matrix(0.7071 -0.7071 0.7071 0.7071 -2.6607 17.6431)" class="st0" cx="20" cy="12" rx="9.8" ry="8.2"/> <path class="st0" d="M11,12.7l0,2.5c0,2-0.8,3.9-2.2,5.3l0,0l2.9,2.9l0,0c1.4-1.4,3.3-2.2,5.3-2.2l2.5,0"/> <path class="st0" d="M11.4,23.5l-4.9,4.9c-0.8,0.8-2.1,0.8-2.9,0l0,0c-0.8-0.8-0.8-2.1,0-2.9l4.9-4.9"/> <line class="st0" x1="18.9" y1="7.3" x2="24.7" y2="13.1"/> <line class="st0" x1="14.5" y1="14.6" x2="22.5" y2="6.6"/> <line class="st0" x1="17.4" y1="17.5" x2="25.4" y2="9.5"/> <line class="st0" x1="15.2" y1="10.9" x2="21.1" y2="16.8"/> </g>

</svg>